<svg width="41" height="32" viewBox="0 0 41 32" fill="none" xmlns="http://www.w3.org/2000/svg">
<path d="M16.4546 9.49995C7.32129 14.7731 1.58057 21.7376 3.56224 25.17C5.53183 28.5814 14.5062 27.0784 23.5792 21.8401C32.6523 16.6017 38.4358 9.57193 36.4716 6.16974C34.5073 2.76756 25.5277 4.26156 16.4546 9.49995Z" fill="#003478"/>
<path d="M27.2525 13.235C27.2733 13.2607 27.326 13.2664 27.3693 13.2585C27.3851 13.2553 27.3967 13.2603 27.4002 13.2984C27.4245 13.5771 27.4034 13.7581 27.3851 14.0231C27.3687 14.2676 27.3151 14.482 27.2304 14.7074C27.1034 15.0488 26.8923 15.4626 26.5283 15.4765C26.3672 15.4837 26.2135 15.3412 26.1348 15.1994C25.9127 14.8011 25.8543 14.2943 25.9486 13.7086C26.063 12.9934 26.3544 12.4885 26.721 12.4608C27.0996 12.4311 27.2033 12.8294 27.2261 13.176C27.2279 13.2028 27.2381 13.2205 27.2523 13.235L27.2525 13.235ZM28.6614 8.31895C28.661 8.26895 28.6227 8.2544 28.5751 8.28187C28.3271 8.42502 28.0021 8.61341 27.7438 8.76256C27.6823 8.79808 27.6547 8.8238 27.6589 8.89794C27.669 9.1357 27.5124 11.5482 27.4914 12.0113C27.4846 12.0839 27.436 12.1024 27.3968 12.0463C27.2589 11.8581 26.9521 11.7273 26.615 11.7746C26.3579 11.8104 26.1454 11.9127 25.9499 12.063C25.5974 12.3351 25.3733 12.7333 25.2052 13.1335C24.952 13.737 24.8194 14.4064 24.5065 15.025C24.3354 15.3622 24.0498 15.7351 23.664 15.6474C23.3147 15.5679 23.07 15.0845 23.2089 14.5212C23.2236 14.4621 23.2861 14.4688 23.2987 14.5065C23.3604 14.6893 23.4947 14.829 23.6852 14.8714C23.9156 14.9199 24.1418 14.8098 24.2754 14.6115C24.4321 14.376 24.4398 14.0915 24.3398 13.8315C24.1845 13.4281 23.7116 13.2663 23.3403 13.4458C23.0393 13.5925 22.82 13.8534 22.6784 14.2326C22.6078 14.4233 22.5788 14.5508 22.5578 14.7852C22.553 14.8427 22.5115 14.8722 22.4778 14.8108C22.2177 14.3297 21.8683 14.1763 21.472 14.3936C21.1639 14.5616 20.9346 14.9139 20.7981 15.2617C20.6493 15.6445 20.5773 16.0796 20.4774 16.507C20.4648 16.5598 20.4357 16.5744 20.3884 16.5135C20.1999 16.2041 19.9452 15.9461 19.6755 15.8141C19.5808 15.7687 19.4512 15.7941 19.3896 15.8971C19.3609 15.9443 19.2538 16.0957 19.1969 16.2426C19.1693 16.3164 19.1849 16.3911 19.2548 16.4582C19.6655 16.8459 19.9424 17.3964 20.012 17.9562C20.0754 18.4691 19.9507 19.0367 19.6246 19.3927C19.41 19.6277 19.1133 19.7446 18.8099 19.6093C18.3922 19.4219 18.1632 18.8088 18.2412 18.1449C18.3106 17.5599 18.6023 17.0453 18.9463 16.6238C18.9865 16.5739 18.9781 16.5344 18.9379 16.4989C18.8723 16.4403 18.7771 16.3637 18.7356 16.3276C18.633 16.2434 18.5099 16.2913 18.3804 16.3861C18.0819 16.6081 17.8564 16.8845 17.6594 17.2019C17.1435 18.033 17.2159 19.0232 17.2909 19.532C17.3267 19.7765 17.3308 19.9396 17.307 20.1001C17.2747 20.316 17.2047 20.5361 17.0715 20.9294C17.0596 20.9653 17.0676 21.0212 17.1126 21.0515C17.173 21.0928 17.4282 21.2101 17.4781 21.2049C17.5346 21.2012 17.5681 21.1412 17.5802 21.115C17.6953 20.8776 17.8042 20.5438 17.8354 20.3421C17.847 20.2724 17.8983 20.2692 17.9603 20.329C18.2764 20.638 18.7208 20.7827 19.1676 20.6927C19.9857 20.5282 20.5029 19.7839 20.7031 18.8925C20.8303 18.3259 20.8159 18.017 20.8531 17.7799C20.9161 17.3779 20.9986 16.5124 21.2912 15.8183C21.398 15.5629 21.5597 15.3218 21.7157 15.3299C21.8408 15.3363 21.9495 15.4565 21.9568 15.8066C21.9855 17.0809 21.8622 18.6688 21.8784 19.0272C21.8798 19.0901 21.9248 19.1144 21.9746 19.0857C22.2512 18.9241 22.5266 18.766 22.7785 18.6206C22.8196 18.5949 22.8269 18.5644 22.8308 18.5227C22.87 17.6509 22.9029 16.8236 22.9515 15.9599C22.9531 15.9097 22.9906 15.9256 23.0008 15.9413C23.0936 16.0816 23.2437 16.2601 23.4055 16.3408C23.7001 16.4927 23.9798 16.4695 24.2246 16.3303C24.4203 16.2212 24.501 16.1344 24.6651 15.9354C24.7989 15.774 24.8877 15.6122 24.9493 15.4767C24.9859 15.3987 25.0379 15.4638 25.0427 15.4756C25.2404 16.0356 25.7026 16.5675 26.3485 16.5258C27.1211 16.4751 27.5411 15.6769 27.704 15.0812C27.7204 15.0235 27.7625 15.0043 27.8114 15.0803C27.9032 15.2188 28.0658 15.3522 28.2535 15.4029C28.7566 15.5387 29.3263 15.0408 29.6832 14.169C29.9128 13.6102 30.0854 12.9083 30.2007 12.2039C30.2047 12.1769 30.1982 12.1411 30.1525 12.1272C30.0568 12.0992 29.9294 12.0776 29.8385 12.0568C29.7983 12.0494 29.7626 12.0789 29.7498 12.1091C29.5688 12.7224 29.4589 13.3662 29.1447 14.0275C29.0395 14.2521 28.8161 14.5132 28.5916 14.4153C28.5042 14.3775 28.4569 14.2827 28.4355 14.1348C28.3685 13.6673 28.6601 8.60683 28.6603 8.3182" fill="white"/>
<path d="M17.579 15.3079C17.6207 15.3564 17.648 15.3548 17.6701 15.3359C17.7787 15.2405 17.8547 15.062 17.8667 14.899C17.8778 14.7511 17.8234 14.5783 17.716 14.5585C17.62 14.5403 17.5245 14.6163 17.4865 14.7294C17.411 14.9548 17.4758 15.1752 17.579 15.308L17.579 15.3079ZM14.1635 23.5772C13.2684 24.1019 12.1564 24.004 11.5105 23.0951C11.1525 22.5916 11.029 22.0299 11.1046 21.4647C11.1709 20.9618 11.4563 20.4109 11.7986 20.119C11.9101 20.0242 12.0856 19.9415 12.2028 19.9845C12.3844 20.0482 12.4334 20.2051 12.3568 20.3233C12.1507 20.6413 11.9465 21.0998 11.9738 21.5491C11.9971 21.9154 12.1667 22.275 12.571 22.4774C13.2464 22.8139 14.2609 22.2481 14.6945 20.8393C14.8033 20.4929 14.8927 20.1689 14.9636 19.8053C15.1036 19.0965 15.1416 18.8458 15.2506 17.7701C15.2514 17.7579 15.2477 17.7447 15.2415 17.7408C15.2312 17.7331 15.223 17.7358 15.2058 17.7438C14.8462 17.9651 14.5903 18.2579 14.4142 18.6682C14.3626 18.7848 14.2289 18.8498 14.1233 18.7966C14.0048 18.7358 13.9769 18.5838 14.0387 18.4533C14.3369 17.819 14.8449 17.4419 15.3467 17.0271C15.3462 17.0274 15.3861 17.0063 15.3937 16.9462C15.4529 16.5216 15.4726 16.1579 15.5449 15.7213C15.6165 15.2793 15.7738 14.8205 15.896 14.4736C16.0661 13.9883 16.2262 13.7656 16.3771 13.5188C16.4176 13.455 16.3313 13.4565 16.3137 13.4667C14.9517 13.9452 13.5021 14.3837 12.5426 15.5399C11.8796 16.3432 11.8962 17.2272 12.3329 17.5721C12.643 17.8166 13.0906 17.6271 13.3712 17.2099C13.6041 16.8631 13.7567 16.433 13.7791 15.9798C13.7925 15.7276 14.1201 15.7149 14.1682 16.1117C14.2956 17.1571 13.9978 18.2166 13.1831 18.7245C12.4892 19.1557 11.7326 18.8989 11.3635 18.2562C10.6356 16.9886 11.5634 15.3411 12.9725 14.3613C14.671 13.1841 16.6347 12.6839 18.5297 11.8762C19.9815 11.2571 21.2843 10.5095 22.4673 9.40879C22.6083 9.28068 22.7808 9.31824 22.8643 9.48715C22.987 9.73019 22.9355 10.0622 22.6277 10.5665C22.2786 11.1416 21.7933 11.5352 21.2378 11.862C19.8949 12.653 18.3336 12.8522 16.8694 13.3207C16.9037 13.3768 16.9579 13.436 16.931 13.4995C16.5172 14.4471 16.1775 15.3629 16.1789 16.373C16.1743 16.399 16.1913 16.4114 16.2163 16.3945C16.5835 16.1557 16.9185 15.9493 17.2558 15.7169C17.3142 15.6753 17.3081 15.6592 17.2766 15.6173C17.0944 15.3741 16.9987 15.032 17.1103 14.6943C17.2237 14.3475 17.5045 14.1535 17.7875 14.1927C18.1093 14.2375 18.2693 14.56 18.2826 14.8634C18.2957 15.1715 18.1646 15.416 18.0041 15.5906C18.0041 15.5906 17.968 15.6232 17.9958 15.6571C18.0376 15.7126 18.3904 15.7062 18.436 15.7324C18.4798 15.7572 18.5016 15.8221 18.4871 15.8899C18.4776 15.9386 18.4508 15.9945 18.3935 16.0262C18.3472 16.0517 18.3102 16.0519 18.2334 16.0541C18.0761 16.0584 17.8648 16.0381 17.6922 15.97C17.6337 15.9471 17.6158 15.9562 17.5336 16.0099C17.1637 16.2529 16.6003 16.6551 16.2252 16.939C16.134 17.0074 16.1303 17.0344 16.1298 17.08C16.0989 18.5151 16.0724 20.0586 15.7599 21.2622C15.4245 22.553 14.8758 23.1585 14.1639 23.5771" fill="white"/>
<path d="M17.0364 10.5093C8.63405 15.3604 3.16379 21.6144 4.80414 24.4555C6.44461 27.2969 14.596 25.6868 22.9983 20.8357C31.4006 15.9847 36.8702 9.73068 35.2298 6.8893C33.5894 4.04815 25.4386 5.65825 17.0364 10.5093ZM23.2685 21.3036C14.5603 26.3313 6.04536 27.8857 4.24973 24.7756C2.45383 21.665 8.05776 15.0686 16.766 10.0409C25.4734 5.01368 33.9876 3.45902 35.7835 6.56961C37.5791 9.67973 31.9759 16.2764 23.2685 21.3036Z" fill="white"/>
</svg>
