<svg width="14" height="12" viewBox="0 0 14 12" fill="none" xmlns="http://www.w3.org/2000/svg">
<path d="M4.40219 12C9.68548 12 12.5747 7.38372 12.5747 3.38065C12.5747 3.24955 12.5722 3.11904 12.5666 2.98907C13.1287 2.56008 13.6139 2.02888 13.9993 1.42039C13.4847 1.66169 12.9308 1.8241 12.3499 1.89734C12.9429 1.52226 13.3982 0.929023 13.6129 0.221776C13.0491 0.57457 12.4322 0.823255 11.789 0.957116C11.2649 0.368289 10.5187 0 9.69238 0C8.10618 0 6.81988 1.35667 6.81988 3.02896C6.81988 3.26669 6.84511 3.49793 6.89439 3.71971C4.50714 3.59301 2.39031 2.38756 0.973599 0.554589C0.718441 1.01686 0.584223 1.5423 0.584658 2.0772C0.584658 3.12821 1.09175 4.05604 1.86287 4.59884C1.40675 4.58416 0.960632 4.45422 0.562014 4.21994C0.561591 4.23268 0.561591 4.24506 0.561591 4.25864C0.561591 5.72575 1.55168 6.95068 2.86597 7.22824C2.61912 7.29916 2.36441 7.33501 2.10857 7.33487C1.92739 7.33474 1.74663 7.31644 1.56873 7.28022C1.93442 8.48388 2.99479 9.35979 4.25195 9.38427C3.26886 10.197 2.03044 10.681 0.684489 10.681C0.452928 10.681 0.224186 10.6671 -0.000656128 10.6391C1.27056 11.4984 2.78 11.9999 4.40233 11.9999" fill="#292929"/>
</svg>
