<svg width="14" height="20" viewBox="0 0 14 20" fill="none" xmlns="http://www.w3.org/2000/svg">
<path fill-rule="evenodd" clip-rule="evenodd" d="M1.81828 0.666504C1.78423 0.666504 1.75028 0.666929 1.71644 0.667775H12.3511C12.3172 0.666929 12.2833 0.666504 12.2492 0.666504H1.81828ZM12.2788 19.3331H1.78874C1.79858 19.3331 1.80843 19.3332 1.81828 19.3332H12.2492C12.2591 19.3332 12.2689 19.3331 12.2788 19.3331ZM10.7914 16.5718H13.5223L13.5235 11.6853C13.5235 9.28647 13.0131 7.44253 10.2453 7.44253C9.72593 7.423 9.2111 7.54651 8.75559 7.79989C8.30009 8.05327 7.92096 8.42703 7.6586 8.88138H7.6219V7.66409H5.00024V16.5715H7.73114V12.165C7.73114 11.0031 7.94875 9.87768 9.37109 9.87768C10.7732 9.87768 10.7914 11.2073 10.7914 12.2402V16.5718ZM1.03839 6.17617C1.29903 6.35249 1.60545 6.44657 1.91889 6.44651C2.127 6.44647 2.33307 6.40492 2.52533 6.32422C2.71759 6.24352 2.89227 6.12526 3.03941 5.97619C3.18654 5.82711 3.30324 5.65015 3.38285 5.4554C3.46246 5.26064 3.50341 5.05191 3.50337 4.84113C3.50332 4.52367 3.41032 4.21336 3.23613 3.94944C3.06195 3.68551 2.81441 3.47983 2.52481 3.3584C2.23521 3.23696 1.91656 3.20524 1.60915 3.26722C1.30175 3.32921 1.01939 3.48213 0.7978 3.70665C0.576205 3.93117 0.425321 4.2172 0.364228 4.52856C0.303134 4.83993 0.334576 5.16266 0.454575 5.45593C0.574575 5.7492 0.777743 5.99984 1.03839 6.17617ZM0.550597 16.5718H3.28433V7.66409H0.550597V16.5718Z" fill="#292929"/>
</svg>
